<svg width="605" height="606" xmlns="http://www.w3.org/2000/svg" xmlns:xlink="http://www.w3.org/1999/xlink" overflow="hidden"><defs><clipPath id="clip0"><rect x="171" y="45" width="605" height="606"/></clipPath><clipPath id="clip1"><rect x="171" y="46" width="605" height="604"/></clipPath><clipPath id="clip2"><rect x="171" y="46" width="605" height="604"/></clipPath><clipPath id="clip3"><rect x="171" y="46" width="605" height="604"/></clipPath></defs><g clip-path="url(#clip0)" transform="translate(-171 -45)"><g clip-path="url(#clip1)"><g clip-path="url(#clip2)"><g clip-path="url(#clip3)"><path d="M88.2244 296.471C88.2244 235.48 111.715 178.335 154.366 135.567L154.319 135.519C196.356 93.5405 251.518 70.4173 309.704 70.4173 431.773 70.4173 531.083 171.703 531.083 296.203 531.083 354.486 507.815 412.172 467.238 454.668L467.204 454.635C425.271 498.135 369.243 522.093 309.442 522.093 187.462 522.093 88.2244 420.879 88.2244 296.471ZM309.442 42.2235C446.897 42.2235 558.727 156.28 558.727 296.471 558.727 362.336 534.207 424.487 489.696 472.001L472.645 454.612 470.996 456.295C511.628 413.179 534.917 355.005 534.917 296.204 534.917 169.549 433.886 66.5062 309.704 66.5062 251.325 66.5062 195.969 89.413 153.44 131L154.397 130.026 137.339 112.628C183.925 67.2301 244.86 42.2235 309.442 42.2235ZM583.15 567.313 495.123 477.537C541.08 428.542 566.397 364.426 566.397 296.471 566.397 151.963 451.129 34.4001 309.442 34.4001 242.816 34.4001 179.952 60.2175 131.915 107.097L57.4616 31.1561 52.0385 36.6873 146.296 132.826C103.903 176.754 80.5549 234.684 80.5549 296.471 80.5549 425.191 183.235 529.916 309.442 529.916 370.023 529.916 426.822 506.103 469.892 462.866L577.726 572.844 583.15 567.312" transform="matrix(1.00166 0 0 1 171 46)"/><path d="M190.646 466.525C187.436 465.983 184.83 464.971 182.897 463.508 180.949 462.037 179.362 460.23 178.178 458.134 176.987 456.021 176.179 453.631 175.778 451.025 175.354 448.343 175.189 445.52 175.287 442.644 175.358 440.505 175.583 438.339 175.95 436.196 176.25 434.401 176.556 432.629 176.863 430.883 188.871 428.931 200.852 427.384 212.507 426.28 224.575 425.145 237.6 424.499 250.908 424.331 252.102 424.508 253.103 424.302 253.856 423.663 254.361 423.239 254.974 422.429 255.027 420.997 255.076 419.618 254.559 418.758 254.121 418.277 253.465 417.559 252.545 417.177 251.32 417.135L251.184 417.135C237.631 417.135 224.615 417.712 212.507 418.855 201.269 419.917 190.071 421.375 178.935 423.224 179.227 422.078 179.122 421.08 178.628 420.263 178.287 419.709 177.609 418.999 176.291 418.763 174.283 418.377 172.736 419.271 172.062 421.062 171.673 421.979 171.414 422.877 171.294 423.725 171.258 423.976 171.197 424.236 171.122 424.504 166.961 425.234 162.806 425.998 158.657 426.796L157.933 426.936C157.054 422.414 154.596 418.607 150.583 415.58 145.583 411.814 139.033 408.823 131.111 406.684 123.341 404.588 114.445 403.025 104.67 402.043 95.0431 401.082 85.4015 400.27 75.7491 399.606 68.6306 399.048 61.5159 398.442 54.4056 397.788 47.5359 397.161 41.2819 396.275 35.8173 395.149 30.4798 394.048 26.1242 392.669 22.8664 391.057 19.2787 389.273 18.919 387.367 18.9642 386.087 19.1475 380.721 21.3459 375.307 25.5033 369.999 29.8023 364.509 35.5326 359.288 42.5291 354.475 49.5853 349.623 57.7502 345.077 66.7941 340.975 75.8323 336.873 85.3372 333.343 95.0521 330.489 104.816 327.632 114.557 325.413 124.01 323.897 133.475 322.373 142.269 321.75 150.123 322.018 155.122 322.189 159.748 323.11 163.872 324.753 167.992 326.391 171.666 328.598 174.793 331.319 177.924 334.046 180.56 337.205 182.632 340.7 184.725 344.245 186.313 348.031 187.343 351.915 187.867 354.043 189.504 355.112 191.582 354.742 192.871 354.504 193.564 353.818 193.916 353.283 194.459 352.457 194.609 351.423 194.354 350.208 194.351 350.188 194.342 350.166 194.339 350.142 193.208 345.522 191.369 341.059 188.868 336.884 186.36 332.708 183.227 328.941 179.579 325.715 175.886 322.456 171.53 319.848 166.627 317.956 161.729 316.069 156.261 315.008 150.37 314.802 141.924 314.515 132.629 315.183 122.7 316.819 112.793 318.446 102.652 320.856 92.5549 323.973 82.4763 327.09 72.5652 330.868 63.0978 335.203 53.6107 339.551 45.042 344.443 37.6261 349.741 30.1314 355.093 24.0013 360.816 19.3983 366.748 14.6422 372.887 12.1135 379.307 11.8886 385.835 11.7433 390.167 13.6457 393.7 17.5483 396.332 21.0722 398.709 25.8662 400.591 31.7916 401.933 37.5853 403.25 44.3415 404.259 51.8725 404.919 59.3487 405.577 67.1764 406.203 75.3603 406.81 84.7124 407.454 94.056 408.216 103.389 409.094 112.562 409.961 120.917 411.321 128.231 413.128 135.388 414.893 141.213 417.318 145.531 420.329 148.58 422.446 150.362 425.075 150.97 428.28L144.838 429.466C143.37 429.607 142.583 430.298 142.186 430.852 141.782 431.41 141.367 432.388 141.681 433.901 141.992 435.379 142.763 436.097 143.355 436.441 144.227 436.949 145.264 436.998 146.22 436.67 147.613 436.378 148.919 436.142 150.288 435.864 149.183 439.161 147.089 442.644 143.857 446.3 138.954 451.861 132.827 457.052 125.651 461.728 118.468 466.403 110.633 470.269 102.363 473.221 94.1764 476.137 86.7007 477.53 80.2169 477.267 76.8885 477.148 74.5359 476.228 73.0307 474.452 71.4912 472.634 70.7835 470.452 70.8735 467.79 70.9857 464.501 72.1687 460.792 74.3901 456.758 76.6365 452.69 79.9969 448.878 84.128 445.596 85.7946 444.662 86.3264 442.843 85.4789 440.964 84.944 439.763 84.109 439.301 83.5018 439.126 82.5171 438.832 81.4726 439.084 80.2476 439.921 74.9961 444.13 70.9478 448.71 68.2096 453.539 65.4314 458.431 63.9485 463.141 63.7983 467.538 63.6441 472.118 64.9288 476.063 67.6109 479.272 70.3377 482.534 74.4947 484.288 79.9694 484.483 80.4794 484.498 80.9921 484.51 81.5134 484.51 86.0264 484.51 90.9286 483.833 96.105 482.492 101.772 481.019 107.52 478.951 113.187 476.355 118.812 473.764 124.374 470.693 129.719 467.225 135.089 463.736 139.902 460.021 144.018 456.17 148.191 452.286 151.594 448.21 154.137 444.057 156.168 440.73 157.442 437.475 157.984 434.341 158.433 434.257 158.913 434.151 159.358 434.068 162.691 433.446 166.002 432.823 169.294 432.204 168.688 435.68 168.324 439.096 168.212 442.392 168.097 445.822 168.302 449.257 168.826 452.595 169.37 456.048 170.433 459.241 171.991 462.087 173.575 464.974 175.83 467.488 178.699 469.562 181.579 471.64 185.204 473.024 189.463 473.68 189.74 473.722 190.006 473.746 190.265 473.746 192.066 473.746 193.414 472.698 193.863 470.884 194.182 469.586 193.827 468.668 193.47 468.125 192.897 467.259 191.939 466.717 190.646 466.525M352.719 437.85C353.07 438.053 353.577 438.251 354.231 438.251 354.566 438.249 354.898 438.201 355.22 438.11L361.995 436.689C364.067 436.162 365.127 434.508 364.76 432.373 364.527 431.059 363.857 430.356 363.333 429.996 362.524 429.443 361.509 429.29 360.329 429.538L353.397 431.002C351.475 431.586 350.572 433.327 351.089 435.432 351.363 436.566 351.914 437.38 352.719 437.85" transform="matrix(1.00166 0 0 1 171 46)"/><path d="M282.544 447.845 282.544 447.843ZM264.926 460.303C265.125 459.963 265.424 459.551 265.873 459.065 266.101 458.82 266.405 458.605 266.664 458.372 268.035 457.661 269.256 456.973 270.169 456.32 270.428 456.143 270.576 455.929 270.782 455.736 272.444 454.96 274.17 454.329 275.941 453.851 277.17 453.523 278.424 453.297 279.69 453.176 277.031 455.292 274.465 456.953 272.035 458.141 269.443 459.413 267.061 460.139 264.926 460.303ZM396.159 464.753C396.461 463.929 396.831 463.132 397.265 462.37 397.235 463.664 396.969 464.86 396.463 465.991 396.175 466.629 395.861 467.118 395.572 467.374 395.601 466.617 395.801 465.739 396.159 464.753ZM447.822 458.405C447.466 457.082 446.747 456.438 446.208 456.132 445.683 455.829 444.807 455.567 443.575 455.925 436.788 458.126 428.546 459.097 419.099 458.733 416.217 458.632 413.339 458.415 410.474 458.08 407.744 457.763 405.063 457.266 402.545 456.617 402.617 455.999 402.512 455.322 402.235 454.596 401.301 452.132 399.38 451.72 397.871 452.178 397.827 452.19 397.782 452.206 397.737 452.224 396.362 452.752 395.11 453.596 393.967 454.681 391.135 456.212 387.968 457.654 384.538 458.958 381.029 460.298 377.453 461.453 373.824 462.419 370.329 463.354 366.782 464.078 363.201 464.589 359.76 465.074 356.58 465.277 353.782 465.169 351.423 465.09 349.734 464.333 348.614 462.854 347.546 461.46 347.423 459.578 348.292 456.93 348.617 455.532 348.145 453.744 345.832 452.927 344.477 452.456 343.458 452.683 342.697 453.191 342.44 453.271 342.211 453.272 341.935 453.401 335.441 456.583 330.203 458.783 326.356 459.933 322.599 461.067 318.719 461.599 314.753 461.434 311.892 461.334 309.966 460.086 308.686 457.499 307.251 454.616 306.61 450.539 306.786 445.387 306.993 439.274 308.326 431.685 310.693 422.987 311.394 421.07 310.6 419.293 308.667 418.457 307.644 418.017 306.701 417.983 305.865 418.354 305.084 418.698 304.481 419.353 304.202 420.161 300.937 427.005 297.401 433.052 293.69 438.141 291.031 441.792 288.341 445.016 285.663 447.767 285.614 447.665 285.559 447.567 285.498 447.472 284.966 446.636 284.072 446.109 282.843 445.91 282.766 445.899 282.689 445.892 282.611 445.887 279.642 445.78 276.686 446.147 273.773 446.964 270.892 447.777 268.245 448.909 265.896 450.334 265.457 450.601 265.107 450.903 264.696 451.182 263.706 451.721 262.691 452.211 261.653 452.652 259.72 453.485 257.529 454.298 255.129 455.07 252.731 455.845 250.383 456.503 248.144 457.026 245.987 457.534 244.035 457.786 242.361 457.702 239.601 457.606 237.469 456.889 236.02 455.567 234.358 454.054 232.897 452.304 231.653 450.33 230.668 448.844 229.53 448.076 228.267 448.044 227.387 448.015 226.219 448.328 225.073 449.887 223.25 452.339 221.08 454.512 218.631 456.338 216.717 457.77 214.975 458.581 213.44 458.749 213.496 457.958 213.631 457.049 213.84 456.036 214.092 454.833 214.462 453.546 214.942 452.221 215.418 450.918 215.89 449.829 216.414 448.832 217.144 447.14 216.559 445.459 214.889 444.448 213.167 443.412 211.377 443.806 210.316 445.464 210.252 445.566 210.197 445.675 210.152 445.788 209.639 447.052 209.028 448.676 208.343 450.65 207.616 452.709 207.088 454.761 206.781 456.743 206.433 458.954 206.567 460.922 207.174 462.584 207.616 463.802 208.89 465.869 212.424 465.995 212.552 465.998 212.679 465.998 212.807 465.998 215.739 465.998 218.844 464.826 222.047 462.503 224.32 460.857 226.238 459.238 227.773 457.667 229.028 459.097 230.567 460.468 232.369 461.767 235.076 463.719 238.354 464.776 242.118 464.913 244.148 464.982 246.476 464.742 249.301 464.169 251.995 463.625 254.662 462.955 257.294 462.16 257.369 462.136 257.439 462.108 257.515 462.085 257.641 463.454 258.135 464.653 259.031 465.644 260.131 466.85 261.582 467.492 263.339 467.553 268.982 467.71 275.387 465.181 282.813 459.936 288.585 455.865 294.311 449.764 299.899 441.746 299.816 442.874 299.755 444.004 299.716 445.134 299.487 451.915 300.479 457.453 302.659 461.591 305.034 466.078 309.019 468.455 314.505 468.65 314.985 468.664 315.461 468.672 315.94 468.672 319.959 468.672 323.981 468.076 327.918 466.892 331.231 465.895 335.41 464.231 340.386 461.939 340.585 464.002 341.284 465.832 342.509 467.404 344.936 470.54 348.648 472.214 353.535 472.389 354.104 472.408 354.686 472.42 355.277 472.42 357.981 472.42 360.928 472.205 364.067 471.786 367.879 471.273 371.756 470.517 375.587 469.544 379.514 468.547 383.379 467.316 387.16 465.858 387.681 465.658 388.168 465.419 388.68 465.212 388.428 467.16 388.548 469.003 389.088 470.697 389.557 472.164 390.935 474.65 394.924 474.792 395.043 474.796 395.167 474.796 395.287 474.796 398.445 474.796 400.957 473.264 402.576 470.338 403.609 468.451 404.265 466.583 404.538 464.753 406.19 464.998 408.01 465.212 409.964 465.391 412.714 465.647 415.707 465.834 418.856 465.944 429.377 466.311 438.343 465.322 445.769 462.904 447.575 462.064 448.343 460.383 447.822 458.405" transform="matrix(1.00166 0 0 1 171 46)"/><path d="M396.323 357.675C392.272 364.23 386.556 369.48 379.164 373.426 373.53 376.48 367.723 378.364 361.742 379.08 355.755 379.8 350.212 380.155 345.111 380.155 339.125 380.155 334.551 379.485 331.384 378.136 328.215 376.791 325.841 375.134 324.257 373.155 322.144 370.288 320.864 366.652 320.427 362.251 319.988 357.856 319.677 352.247 319.506 345.425 319.506 342.377 319.459 338.741 319.373 334.521 319.282 330.306 319.24 325.682 319.24 320.656L319.24 287.001 344.846 287.001C349.949 287.001 354.391 287.229 358.177 287.675 361.961 288.124 365.787 288.979 369.66 290.233 374.412 291.847 378.767 294.046 382.729 296.829 386.662 299.589 390.136 302.951 393.024 306.791 395.926 310.651 398.21 314.866 399.885 319.445 401.556 324.02 402.394 328.912 402.394 334.117 402.394 343.271 400.369 351.124 396.323 357.675ZM319.24 274.347 319.24 257.117C319.24 250.297 319.282 243.116 319.373 235.577 319.459 228.037 319.592 221.13 319.768 214.847 319.944 211.614 320.074 209.015 320.164 207.039 320.251 205.066 320.339 203.403 320.427 202.057 320.516 200.71 320.646 199.592 320.825 198.693 320.997 197.795 321.175 196.807 321.352 195.731 322.938 195.193 325.221 194.747 328.215 194.385 331.207 194.027 334.551 193.846 338.248 193.846 350.563 193.846 360.685 195.641 368.606 199.232 375.29 202.286 380.88 207.308 385.367 214.308 389.855 221.307 392.1 229.296 392.1 238.269 392.1 250.478 388.006 260.71 379.823 268.963 371.641 277.22 359.63 281.798 343.791 282.693 341.323 282.873 338.07 282.961 334.025 282.961L319.239 282.961 319.239 274.347ZM428.922 311.905C426.019 306.252 422.148 301.363 417.309 297.233 412.466 293.106 406.967 289.829 400.81 287.404 394.648 284.983 388.401 283.413 382.067 282.693L382.067 281.615C394.035 279.105 403.754 274.211 411.237 266.943 418.716 259.674 422.457 250.117 422.457 238.269 422.457 227.501 419.552 218.615 413.744 211.614 407.938 204.614 400.546 199.413 391.571 195.999 385.936 193.846 380.088 192.364 374.015 191.557 367.944 190.749 361.565 190.346 354.878 190.346L290.467 190.346 290.467 256.039 290.421 256.039C290.433 257.464 290.467 258.943 290.467 260.346L290.467 302.079C290.467 307.463 290.421 312.713 290.335 317.828 290.252 322.54 290.165 327.252 290.072 331.963 289.981 336.271 289.94 339.683 289.94 342.193 289.94 343.652 289.851 345.155 289.805 346.635 289.809 347.093 289.819 347.518 289.819 347.994 289.819 350.285 289.657 352.403 289.385 354.393 286.95 372.256 274.507 378.379 268.148 380.353 265.894 381.053 264.4 381.237 264.4 381.237 266.272 380.078 268.032 378.747 269.657 377.261 279.184 367.708 281.567 350.108 282.069 338.991L282.069 190.346 226.108 190.346 226.108 193.039C230.681 193.578 235.122 194.385 239.437 195.46 243.749 196.538 247.134 198.605 249.599 201.654 250.657 202.911 251.403 204.708 251.844 207.04 252.281 209.373 252.636 212.019 252.901 214.98 253.164 217.943 253.297 221.04 253.297 224.27L253.297 317.962C253.297 322.99 253.25 327.656 253.164 331.963 253.073 336.271 253.031 339.683 253.031 342.192 252.854 347.226 252.546 352.254 252.109 357.271 251.667 362.299 250.92 366.786 249.865 370.733 248.63 374.862 246.651 378.363 243.926 381.233 241.195 384.107 237.63 385.541 233.234 385.541 231.824 385.541 230.332 385.225 228.746 384.598 227.163 383.971 225.929 383.028 225.051 381.772L225.051 380.962C228.746 380.426 231.824 379.212 234.289 377.33 236.752 375.444 237.987 372.44 237.987 368.308 237.987 364.721 236.708 361.624 234.158 359.021 231.605 356.421 228.568 355.118 225.051 355.118 220.999 355.118 217.396 356.464 214.227 359.154 211.06 361.847 209.475 365.347 209.475 369.655 209.475 373.067 210.136 375.983 211.457 378.404 212.777 380.83 214.535 382.712 216.734 384.059 218.33 385.035 220.112 385.787 221.985 386.434 222.058 386.475 222.097 386.548 222.183 386.574 222.436 386.65 222.954 386.809 223.683 387.006 223.837 387.049 223.971 387.114 224.127 387.156 224.309 387.203 224.495 387.219 224.678 387.263 230.354 388.666 244.271 391.01 258.617 384.195L354.087 384.195C361.828 384.195 369.835 383.926 378.107 383.387 386.378 382.848 393.854 381.326 400.547 378.809 404.416 377.375 408.287 375.269 412.162 372.483 416.031 369.702 419.552 366.338 422.72 362.387 425.889 358.439 428.438 353.864 430.375 348.656 432.31 343.451 433.279 337.617 433.279 331.156 433.279 323.978 431.829 317.559 428.922 311.905" fill="#7FECD3" transform="matrix(1.00166 0 0 1 171 46)"/><text fill="#7AF3D7" font-family="Arial,Arial_MSFontService,sans-serif" font-weight="400" font-size="391" transform="matrix(0.0455206 0 0 0.0637672 409.03 223)">Joe <tspan font-size="391" x="770.974" y="0">&amp; </tspan><tspan font-size="391" x="1070.88" y="0">Blog</tspan></text></g></g></g><rect x="378" y="200" width="232" height="239" fill="#FFFFFF"/><text fill="#92D050" font-family="CommercialScript BT,CommercialScript BT_MSFontService,sans-serif" font-weight="400" font-size="187" transform="translate(387.722 362)">ZH</text></g></svg>